<?xml version="1.0" encoding="UTF-8"?>
<svg id="_图层_2" data-name="图层_2" xmlns="http://www.w3.org/2000/svg" viewBox="0 0 280.54 64">
  <defs>
    <style>
      .cls-1 {
        fill: #fff;
      }

      .cls-2 {
        fill: #0042c6;
      }
    </style>
  </defs>
  <g id="_图层_1-2" data-name="图层_1">
    <g>
      <g>
        <rect class="cls-1" width="64" height="64" rx="13.73" ry="13.73"/>
        <path class="cls-2" d="M.05,51.48c.4-.04,5.47-.57,8.01-.65,5.41-.17,10.83-.31,16.26-.34,2.91-.02,4.2-1.1,4.89-4.08,2.01-8.55,3.72-17.17,5.54-25.77.36-1.67.73-3.35.98-5.04.29-1.93-.99-2.66-2.83-2.05-1.03.34-1.84,1.1-3.02,2.99-2.61,4.16-4.75,8.6-7.13,12.9-2.72,4.89-5.4,9.81-9.3,13.91-3.31,3.47-6.06,5.42-10.88,6.24-.48.08-2.64.25-2.51,1.9ZM9.2,48.5c.48-.33,1.17-.83,1.98-1.47,1.77-1.41,5.83-4.71,9.9-12.1,2.76-5.01,5.47-10.07,8.23-15.08.43-.78,1.15-2.02,1.83-2.32.5-.22,1.19.19,1.1.73-.17.97-2.47,11.91-3.69,17.7-.39,1.84-.7,3.69-1.21,5.5-.38,1.34-.87,2.68-1.54,3.9-.44.81-1.11,1.74-2.23,2.41-1.31.77-2.64.75-3.34.73-2.63-.04-6.36,0-11.03,0Z"/>
        <path class="cls-2" d="M58.95,14.67c-5.1,1.78-7.72,3.91-10.6,7.64-.41.53-.71,1.16-.96,1.78-.85,2.05.3,4.07,2.49,4.38.05,0,.09.01.14.02,1.22.15,1.55,1.81.49,2.43,0,0-.02.01-.03.02-2.99,1.75-5.97,3.55-8.78,5.56-2.17,1.55-4.02,3.52-5.01,6.1-1.34,3.49.27,6.52,3.92,7.28,1,.21,2.07.24,3.08.14,4.67-.46,8.82-2.48,12.94-4.54.48-.24.98-.47,1.62-.78-.12.66-1.47,3.22-2.72,3.73-1.99.81-3.82,1.4-5.77,1.91-3.81.99-7.66,1.35-11.41-.26-3.56-1.53-5.04-4.85-3.95-8.57.87-2.95,2.73-5.2,5.06-7.03,2.29-1.79,4.78-3.34,7.12-4.96-2.8-1.25-3.07-3.19-1.29-6.41,2.83-5.12,11.45-10.03,16.99-9.98,1.31.24.24.3-3.35,1.55Z"/>
      </g>
      <g>
        <g>
          <g>
            <path class="cls-1" d="M130.2,42.27c.13-.13.27-.19.42-.19.18,0,.36.16.53.47-.24.33-.52.66-.84.98-.32.32-.69.6-1.13.85-.44.25-.93.45-1.49.6-.56.15-1.2.22-1.92.22s-1.45-.12-2.12-.36c-.67-.24-1.26-.61-1.77-1.11s-.92-1.12-1.23-1.87c-.31-.74-.46-1.62-.46-2.62,0-.95.18-1.82.54-2.62.36-.8.83-1.48,1.41-2.05s1.21-1.01,1.91-1.32c.7-.32,1.37-.47,2.02-.47,1.73,0,2.98.5,3.77,1.5.79,1,1.18,2.31,1.18,3.93,0,.11-.06.17-.17.17l-8.05.36c0,.72.1,1.39.3,2.01.2.61.49,1.14.86,1.59.37.45.82.79,1.35,1.04.53.25,1.12.38,1.79.38.59,0,1.16-.14,1.71-.42.55-.28,1-.63,1.37-1.06ZM125.7,33.77c-.92,0-1.64.36-2.16,1.09-.52.72-.78,1.67-.78,2.84l5.24-.25c.28,0,.42-.12.42-.36,0-.35-.06-.72-.17-1.11-.11-.39-.28-.75-.5-1.07-.22-.32-.5-.59-.84-.81-.34-.21-.74-.32-1.21-.32Z"/>
            <path class="cls-1" d="M143.15,42.27c.13-.13.27-.19.42-.19.18,0,.36.16.53.47-.24.33-.52.66-.84.98-.32.32-.69.6-1.13.85-.44.25-.93.45-1.49.6-.56.15-1.2.22-1.92.22s-1.45-.12-2.12-.36c-.67-.24-1.26-.61-1.77-1.11s-.92-1.12-1.23-1.87c-.31-.74-.46-1.62-.46-2.62,0-.95.18-1.82.54-2.62.36-.8.83-1.48,1.41-2.05s1.21-1.01,1.91-1.32c.7-.32,1.37-.47,2.02-.47,1.73,0,2.98.5,3.77,1.5.79,1,1.18,2.31,1.18,3.93,0,.11-.06.17-.17.17l-8.05.36c0,.72.1,1.39.3,2.01.2.61.49,1.14.86,1.59.37.45.82.79,1.35,1.04.53.25,1.12.38,1.79.38.59,0,1.16-.14,1.71-.42.55-.28,1-.63,1.37-1.06ZM138.65,33.77c-.92,0-1.64.36-2.16,1.09-.52.72-.78,1.67-.78,2.84l5.24-.25c.28,0,.42-.12.42-.36,0-.35-.06-.72-.17-1.11-.11-.39-.28-.75-.5-1.07-.22-.32-.5-.59-.84-.81-.34-.21-.74-.32-1.21-.32Z"/>
            <path class="cls-1" d="M147.66,35.56c0-.52-.09-.89-.26-1.11s-.58-.36-1.21-.42c-.24-.04-.36-.16-.36-.36,0-.11.02-.24.06-.39.24,0,.57-.01.99-.04s.77-.07,1.04-.13c.41-.06.77-.13,1.1-.21s.56-.13.71-.13c.24,0,.36.14.36.42,0,.22-.01.49-.04.79-.03.31-.04.76-.04,1.35.56-.72,1.18-1.33,1.88-1.82.7-.49,1.55-.74,2.58-.74.63,0,1.24.13,1.82.39.58.26,1.1.65,1.55,1.16.45.51.8,1.14,1.07,1.88.27.74.4,1.59.4,2.53,0,1.04-.2,1.96-.58,2.76s-.87,1.47-1.45,2.02c-.58.55-1.2.97-1.88,1.25-.68.29-1.3.43-1.88.43s-1.17-.06-1.74-.17-1.16-.31-1.77-.58v5.04c0,.48.21.81.64.99.43.18,1.12.31,2.09.4.2.04.31.16.31.36,0,.11-.02.26-.06.45-.43-.04-1.01-.07-1.75-.1-.74-.03-1.44-.04-2.09-.04-.48,0-.99.01-1.53.04-.54.03-1.05.06-1.53.1-.04-.19-.06-.33-.06-.45,0-.19.08-.3.25-.33.41-.09.74-.2,1-.33.26-.13.39-.34.39-.64v-14.37ZM150,42.6c.46.48.97.87,1.53,1.16.56.29,1.19.43,1.89.43.54,0,1.01-.12,1.42-.36.41-.24.75-.57,1.02-.99.27-.42.47-.92.61-1.5s.21-1.22.21-1.91-.08-1.38-.24-2.02c-.16-.64-.39-1.2-.7-1.69-.31-.48-.68-.86-1.11-1.14-.44-.28-.92-.42-1.46-.42-.37,0-.74.11-1.11.32-.37.21-.71.49-1.02.82-.31.33-.56.71-.75,1.13-.19.42-.29.84-.29,1.27v4.9Z"/>
          </g>
          <g>
            <path class="cls-1" d="M184.31,34.64c-.21-.26-.41-.45-.63-.57-.21-.12-.53-.21-.93-.26-.24-.04-.36-.17-.36-.39,0-.04,0-.1.01-.18,0-.08.03-.15.07-.21.46.04.92.06,1.38.07.46,0,.96.01,1.52.01,1.15,0,2.19-.03,3.12-.08.02.06.04.12.05.18.02.06.03.12.03.15,0,.26-.12.39-.36.39-.48.04-.8.09-.96.15s-.24.17-.24.32c0,.22.15.51.45.86l2.06,2.59,1.98-2.81c.2-.32.31-.54.31-.67,0-.11-.06-.2-.18-.26s-.38-.12-.77-.15c-.24,0-.36-.14-.36-.42,0-.04,0-.09.01-.15,0-.06.03-.13.07-.18.72.06,1.51.08,2.37.08.74,0,1.45-.03,2.12-.08.06.11.08.23.08.36,0,.24-.12.37-.36.39-.45.06-.82.15-1.13.28-.31.13-.59.38-.85.75l-2.62,3.7,3.37,4.29c.39.48.73.82,1.03,1,.3.19.64.31,1.03.36.15.02.22.15.22.39,0,.11-.02.26-.06.45-.52-.04-1.06-.07-1.63-.1-.57-.03-1.08-.04-1.55-.04s-.95.01-1.5.04c-.56.03-1.11.06-1.64.1-.04-.19-.06-.33-.06-.45,0-.22.09-.34.28-.36.43-.07.75-.15.96-.24s.32-.22.32-.4c0-.09-.04-.19-.12-.31-.08-.11-.17-.23-.27-.36l-2.28-3.01-1.89,2.81c-.79,1.23-1.62,1.89-2.15,2.19-.16.09-.37.02-.55.03-.46.03.5-.04.01,0,1.23-.66.86-1.53,1.16-1.94l2.79-3.9-3.34-4.43Z"/>
            <path class="cls-1" d="M203.25,43.22c.09-.09.17-.15.24-.17.07-.02.12-.03.15-.03.17,0,.31.12.45.36-.48.54-1,.98-1.56,1.31-.56.33-1.15.5-1.78.5-.37,0-.72-.04-1.06-.12-.33-.08-.62-.25-.86-.49-.24-.24-.43-.57-.57-.99-.14-.42-.21-.96-.21-1.63v-7.69h-1.67v-.31c0-.13.02-.25.07-.36.05-.11.14-.17.29-.17.5,0,.91-.13,1.23-.39.31-.26.57-.59.78-1,.22-.45.42-.86.58-1.25.17-.39.35-.58.56-.58h.5v2.9h3.26c0,.39-.04.68-.12.88-.08.19-.24.29-.46.29h-2.67v6.91c0,.59.03,1.07.08,1.43.06.36.14.64.25.84.11.2.24.32.39.38s.32.08.5.08c.31,0,.61-.07.88-.21s.52-.3.77-.49Z"/>
            <path class="cls-1" d="M215.06,42.27c.13-.13.27-.19.42-.19.19,0,.36.16.53.47-.24.33-.52.66-.84.98-.31.32-.69.6-1.13.85-.44.25-.93.45-1.49.6s-1.2.22-1.92.22-1.45-.12-2.12-.36c-.67-.24-1.26-.61-1.77-1.11-.51-.5-.92-1.12-1.22-1.87-.31-.74-.46-1.62-.46-2.62,0-.95.18-1.82.54-2.62.36-.8.83-1.48,1.41-2.05.57-.57,1.21-1.01,1.91-1.32.7-.32,1.37-.47,2.02-.47,1.73,0,2.98.5,3.77,1.5.79,1,1.18,2.31,1.18,3.93,0,.11-.05.17-.17.17l-8.05.36c0,.72.1,1.39.3,2.01.21.61.49,1.14.86,1.59s.82.79,1.35,1.04c.53.25,1.12.38,1.79.38.59,0,1.16-.14,1.71-.42.55-.28,1-.63,1.38-1.06ZM210.56,33.77c-.92,0-1.64.36-2.16,1.09-.52.72-.78,1.67-.78,2.84l5.24-.25c.28,0,.42-.12.42-.36,0-.35-.06-.72-.17-1.11-.11-.39-.28-.75-.5-1.07-.22-.32-.5-.59-.85-.81-.34-.21-.74-.32-1.21-.32Z"/>
            <path class="cls-1" d="M230.15,43.27c0,.28.17.49.5.63.33.14.71.25,1.11.32.17.04.25.15.25.33,0,.11-.02.26-.05.45-.48-.04-.96-.07-1.42-.1-.46-.03-.96-.04-1.5-.04-.5,0-1,.01-1.49.04-.49.03-.98.06-1.46.1-.04-.19-.06-.33-.06-.45,0-.19.08-.3.25-.33.39-.07.74-.18,1.06-.32.32-.14.47-.35.47-.63v-5.46c0-.46-.03-.89-.08-1.28-.05-.39-.16-.73-.32-1.02-.16-.29-.37-.51-.64-.67-.27-.16-.62-.24-1.04-.24-.46,0-.92.08-1.36.24-.44.16-.84.39-1.18.7-.34.31-.62.68-.82,1.13-.2.45-.3.96-.3,1.53v5.07c0,.28.16.49.49.63.32.14.67.25,1.04.32.17.04.25.15.25.33,0,.11-.02.26-.06.45-.48-.04-.96-.07-1.42-.1-.47-.03-.96-.04-1.49-.04s-1.06.01-1.54.04c-.48.03-.96.06-1.42.1-.04-.19-.05-.33-.05-.45,0-.19.08-.3.25-.33.41-.07.78-.18,1.12-.32s.5-.36.5-.65v-7.58c0-.56-.1-.96-.29-1.2-.2-.24-.62-.39-1.27-.45-.24-.04-.36-.17-.36-.39,0-.09.02-.21.06-.36.24,0,.58-.01,1.02-.04.44-.03.79-.06,1.08-.1.43-.07.82-.15,1.15-.24s.58-.13.73-.13c.26,0,.39.14.39.42,0,.26-.03.57-.08.93s-.08.84-.08,1.43c.8-.89,1.56-1.58,2.29-2.06.73-.48,1.53-.72,2.4-.72,1.13,0,1.97.33,2.54.99.56.66.85,1.57.85,2.74v6.77Z"/>
            <path class="cls-1" d="M241.21,36.2c-.15,0-.26-.03-.32-.1-.06-.06-.11-.13-.12-.21-.13-.76-.43-1.3-.91-1.63-.47-.32-1.06-.49-1.77-.49-.54,0-1.02.15-1.44.46-.42.31-.62.73-.62,1.27,0,.48.19.89.57,1.21.38.33,1.07.65,2.07.96.54.17,1.04.35,1.49.56.46.2.85.45,1.17.74.32.29.58.64.77,1.06s.28.92.28,1.49c0,.48-.09.95-.26,1.39-.18.45-.45.84-.81,1.17-.36.33-.82.6-1.37.81-.55.2-1.2.31-1.96.31-.6,0-1.26-.07-1.99-.21s-1.4-.38-1.99-.71c-.04-.48-.07-.99-.1-1.52-.03-.53-.04-1.06-.04-1.6h.28c.19,0,.34.03.47.1.13.07.21.17.22.32.07.78.38,1.41.91,1.88.53.47,1.27.71,2.21.71.76,0,1.35-.17,1.75-.52s.61-.81.61-1.41-.22-1.08-.67-1.41c-.45-.32-1.1-.62-1.98-.88-1.1-.33-1.96-.77-2.58-1.31-.62-.54-.93-1.33-.93-2.37,0-.48.09-.94.28-1.36s.45-.8.78-1.11c.33-.32.74-.57,1.22-.75.48-.19,1.02-.28,1.62-.28.74,0,1.44.1,2.1.29.66.2,1.17.4,1.55.63.02.15.04.33.05.54.02.21.03.44.04.67,0,.23.02.46.03.7,0,.23.01.44.01.63l-.64-.03Z"/>
            <path class="cls-1" d="M247.44,44.86c-.32,0-.64,0-.97.01s-.63.02-.91.04c-.28.02-.52.04-.72.06s-.33.03-.39.03c0-.02,0-.08-.03-.2s-.03-.2-.03-.25c0-.19.08-.3.25-.33.48-.09.87-.2,1.17-.33.3-.13.45-.34.45-.64v-7.58c0-.56-.1-.96-.29-1.2-.2-.24-.62-.39-1.27-.45-.24-.04-.36-.17-.36-.39,0-.09.02-.21.06-.36.24,0,.58-.01,1.02-.04.44-.03.79-.06,1.08-.1.43-.07.82-.15,1.15-.24s.58-.13.73-.13c.26,0,.39.14.39.42,0,.26-.03.57-.08.93s-.08.84-.08,1.43v7.69c0,.3.14.51.43.64.29.13.69.24,1.21.33.15.04.22.15.22.33,0,.05,0,.14-.01.25,0,.11-.02.18-.04.2-.05,0-.18,0-.38-.03-.2-.02-.43-.04-.71-.06s-.58-.03-.91-.04c-.33,0-.65-.01-.97-.01ZM245.81,28.12c0-.45.15-.83.46-1.16.31-.32.69-.49,1.16-.49s.82.16,1.12.49c.3.33.45.71.45,1.16,0,.48-.15.87-.45,1.17-.3.3-.67.45-1.12.45s-.85-.15-1.16-.45c-.3-.3-.46-.69-.46-1.17Z"/>
            <path class="cls-1" d="M252.07,38.98c0-.85.16-1.66.49-2.42.32-.76.77-1.42,1.32-1.98.56-.56,1.21-1,1.96-1.32s1.56-.49,2.44-.49,1.74.15,2.51.46c.76.31,1.42.73,1.96,1.27.55.54.97,1.19,1.28,1.96.3.77.46,1.61.46,2.52s-.16,1.69-.49,2.44c-.32.75-.77,1.41-1.32,1.96s-1.21,1-1.96,1.32c-.75.33-1.56.49-2.44.49s-1.75-.15-2.51-.46c-.76-.31-1.42-.73-1.96-1.27-.55-.54-.97-1.19-1.28-1.95-.31-.76-.46-1.61-.46-2.53ZM254.69,38.06c0,.69.07,1.39.22,2.12s.38,1.38.68,1.96c.3.58.7,1.07,1.18,1.45.48.38,1.07.57,1.75.57,1.06,0,1.88-.37,2.46-1.11.59-.74.88-1.7.88-2.87,0-.69-.07-1.41-.21-2.16-.14-.75-.36-1.44-.67-2.06s-.71-1.14-1.2-1.55c-.49-.41-1.1-.61-1.82-.61-.98,0-1.78.34-2.38,1.02-.6.68-.91,1.76-.91,3.25Z"/>
            <path class="cls-1" d="M278.67,43.27c0,.28.17.49.5.63s.71.25,1.11.32c.17.04.25.15.25.33,0,.11-.02.26-.06.45-.48-.04-.96-.07-1.42-.1-.46-.03-.96-.04-1.5-.04-.5,0-1,.01-1.49.04-.49.03-.98.06-1.46.1-.04-.19-.05-.33-.05-.45,0-.19.08-.3.25-.33.39-.07.74-.18,1.06-.32s.47-.35.47-.63v-5.46c0-.46-.03-.89-.08-1.28-.06-.39-.16-.73-.32-1.02-.16-.29-.37-.51-.64-.67-.27-.16-.62-.24-1.04-.24-.46,0-.91.08-1.36.24-.44.16-.84.39-1.18.7-.34.31-.61.68-.82,1.13-.2.45-.3.96-.3,1.53v5.07c0,.28.16.49.49.63.33.14.67.25,1.04.32.17.04.25.15.25.33,0,.11-.02.26-.05.45-.48-.04-.96-.07-1.42-.1-.46-.03-.96-.04-1.49-.04s-1.06.01-1.54.04c-.48.03-.96.06-1.42.1-.04-.19-.06-.33-.06-.45,0-.19.08-.3.25-.33.41-.07.78-.18,1.11-.32s.5-.36.5-.65v-7.58c0-.56-.1-.96-.29-1.2-.2-.24-.62-.39-1.27-.45-.24-.04-.36-.17-.36-.39,0-.09.02-.21.05-.36.24,0,.58-.01,1.02-.04.44-.03.79-.06,1.07-.1.43-.07.82-.15,1.15-.24s.58-.13.73-.13c.26,0,.39.14.39.42,0,.26-.03.57-.08.93-.06.36-.08.84-.08,1.43.79-.89,1.56-1.58,2.29-2.06s1.53-.72,2.4-.72c1.13,0,1.97.33,2.54.99.56.66.85,1.57.85,2.74v6.77Z"/>
          </g>
          <path class="cls-1" d="M87.85,47.34c.4-.04,5.47-.57,8.01-.65,5.41-.17,10.83-.31,16.26-.34,2.91-.02,4.2-1.1,4.89-4.08,2.01-8.55,3.72-17.17,5.54-25.77.36-1.67.73-3.35.98-5.04.29-1.93-.99-2.66-2.83-2.05-1.03.34-1.84,1.1-3.02,2.99-2.61,4.16-4.75,8.6-7.13,12.9-2.72,4.89-5.4,9.81-9.3,13.91-3.31,3.47-6.06,5.42-10.88,6.24-.48.08-2.64.25-2.51,1.9ZM97,44.36c.48-.33,1.17-.83,1.98-1.47,1.77-1.41,5.83-4.71,9.9-12.1,2.76-5.01,5.47-10.07,8.23-15.08.43-.78,1.15-2.02,1.83-2.32.5-.22,1.19.19,1.1.73-.17.97-2.47,11.91-3.69,17.7-.39,1.84-.7,3.69-1.21,5.5-.38,1.34-.87,2.68-1.54,3.9-.44.81-1.11,1.74-2.23,2.41-1.31.77-2.64.75-3.34.73-2.63-.04-6.36,0-11.03,0Z"/>
        </g>
        <path class="cls-1" d="M187.23,11.37c-5.1,1.78-7.72,3.91-10.6,7.64-.41.53-.71,1.16-.96,1.78-.85,2.05.3,4.07,2.49,4.38.05,0,.09.01.14.02,1.22.15,1.55,1.81.49,2.43,0,0-.02.01-.03.02-2.99,1.75-5.97,3.55-8.78,5.56-2.17,1.55-4.02,3.52-5.01,6.1-1.34,3.49,1.33,7.07,4.97,7.88,4.05.9,11.14.82,15.26-4.62.35-.46,1.14-.43,1.79-.73-.98,1.76-2.12,3.15-3.08,4.1-3.13,3.11-9.21,4.94-16.21,2.31-4.41-1.65-6.09-6.3-5-10.02.87-2.95,2.73-5.2,5.06-7.03,2.29-1.79,4.78-3.34,7.12-4.96-2.8-1.25-3.07-3.19-1.29-6.41,2.83-5.12,11.45-10.03,16.99-9.98,1.31.24.24.3-3.35,1.55Z"/>
      </g>
    </g>
  </g>
</svg>