<?xml version="1.0" encoding="UTF-8"?>
<svg id="_图层_2" data-name="图层_2" xmlns="http://www.w3.org/2000/svg" viewBox="0 0 48 48">
  <defs>
    <style>
      .cls-1 {
        fill: #fff;
      }

      .cls-2 {
        fill: #0042c6;
      }
    </style>
  </defs>
  <g id="_图层_1-2" data-name="图层_1">
    <g>
      <rect class="cls-2" width="48" height="48" rx="10.3" ry="10.3"/>
      <path class="cls-1" d="M.04,38.61c.3-.03,4.1-.43,6.01-.49,4.06-.13,8.13-.24,12.19-.26,2.18-.02,3.15-.83,3.67-3.06,1.51-6.41,2.79-12.88,4.15-19.33.27-1.26.54-2.51.73-3.78.22-1.45-.74-1.99-2.12-1.54-.78.25-1.38.83-2.26,2.24-1.95,3.12-3.56,6.45-5.35,9.67-2.04,3.67-4.05,7.36-6.98,10.43-2.48,2.6-4.54,4.07-8.16,4.68-.36.06-1.98.19-1.88,1.43ZM6.9,36.38c.36-.25.88-.62,1.48-1.1,1.32-1.06,4.37-3.54,7.43-9.08,2.07-3.76,4.1-7.55,6.17-11.31.32-.58.86-1.51,1.37-1.74.37-.17.89.15.82.55-.13.73-1.85,8.93-2.77,13.27-.29,1.38-.53,2.77-.91,4.12-.28,1.01-.66,2.01-1.15,2.92-.33.61-.83,1.31-1.68,1.81-.98.58-1.98.56-2.5.55-1.97-.03-4.77,0-8.27,0Z"/>
      <path class="cls-1" d="M44.21,11c-3.83,1.33-5.79,2.93-7.95,5.73-.3.4-.53.87-.72,1.33-.63,1.54.22,3.06,1.87,3.28.04,0,.07,0,.11.01.92.11,1.16,1.36.37,1.83,0,0-.01,0-.02.01-2.24,1.31-4.48,2.66-6.59,4.17-1.63,1.16-3.01,2.64-3.76,4.57-1.01,2.61.2,4.89,2.94,5.46.75.15,1.55.18,2.31.11,3.5-.35,6.61-1.86,9.71-3.41.36-.18.73-.35,1.22-.59-.09.49-1.1,2.42-2.04,2.8-1.49.61-2.86,1.05-4.33,1.43-2.86.74-5.74,1.01-8.56-.2-2.67-1.15-3.78-3.64-2.96-6.43.65-2.21,2.05-3.9,3.8-5.27,1.72-1.35,3.59-2.51,5.34-3.72-2.1-.94-2.3-2.39-.97-4.8,2.12-3.84,8.58-7.52,12.74-7.49.98.18.18.22-2.51,1.16Z"/>
    </g>
  </g>
</svg>